<svg width="28" height="24" viewBox="0 0 28 24" fill="none" xmlns="http://www.w3.org/2000/svg">
    <path d="M27.3891 2.1755C27.2242 1.88075 27.0027 1.62148 26.7373 1.41257C26.2051 0.992896 25.5284 0.800953 24.8551 0.878689C24.1819 0.956425 23.5667 1.29752 23.1442 1.82743L10.4585 17.8286C10.3191 18.006 10.1155 18.1217 9.89173 18.1505C9.66792 18.1794 9.44173 18.1192 9.26188 17.9829L4.4276 14.2491C3.88747 13.8327 3.20401 13.6478 2.5276 13.7353C1.85118 13.8227 1.2372 14.1753 0.820739 14.7154C0.404274 15.2556 0.219433 15.939 0.306879 16.6154C0.394324 17.2918 0.746894 17.9058 1.28703 18.3223L7.41388 23.0503C7.87967 23.4242 8.41852 23.6966 8.99583 23.8499C9.57315 24.0032 10.1761 24.034 10.7661 23.9403C11.356 23.8467 11.9198 23.6307 12.4213 23.3061C12.9228 22.9816 13.3508 22.5558 13.6779 22.056L27.159 5.02286C27.3691 4.75841 27.5249 4.45508 27.6174 4.13026C27.7099 3.80545 27.7374 3.46556 27.6982 3.13011C27.659 2.79465 27.554 2.47024 27.3891 2.1755Z" fill="white"/>
</svg>
